<svg id="if" xmlns="http://www.w3.org/2000/svg" width="390" height="390" viewBox="0 0 390 390">
  <defs>
    <style>
      .cls-1 {
        fill: red;
      }

      .cls-2 {
        fill: #fff;
      }
    </style>
  </defs>
  <rect id="矩形_4" data-name="矩形 4" class="cls-1" x="3" y="3" width="384" height="384" rx="72" ry="72"/>
  <g id="i">
    <g id="组_4" data-name="组 4">
      <rect id="矩形_3_拷贝_9" data-name="矩形 3 拷贝 9" class="cls-2" x="92" y="91" width="40" height="40"/>
      <rect id="矩形_3_拷贝_10" data-name="矩形 3 拷贝 10" class="cls-2" x="92" y="133" width="40" height="40"/>
      <rect id="矩形_3_拷贝_11" data-name="矩形 3 拷贝 11" class="cls-2" x="92" y="175" width="40" height="40"/>
      <rect id="矩形_3_拷贝_12" data-name="矩形 3 拷贝 12" class="cls-2" x="92" y="217" width="40" height="40"/>
      <rect id="矩形_3_拷贝_13" data-name="矩形 3 拷贝 13" class="cls-2" x="92" y="259" width="40" height="40"/>
    </g>
  </g>
  <g id="f">
    <g id="组_3" data-name="组 3">
      <rect id="矩形_3_拷贝_2" data-name="矩形 3 拷贝 2" class="cls-2" x="174" y="91" width="40" height="40"/>
      <rect id="矩形_3_拷贝_3" data-name="矩形 3 拷贝 3" class="cls-2" x="174" y="133" width="40" height="40"/>
      <rect id="矩形_3_拷贝_4" data-name="矩形 3 拷贝 4" class="cls-2" x="174" y="175" width="40" height="40"/>
      <rect id="矩形_3_拷贝_7" data-name="矩形 3 拷贝 7" class="cls-2" x="174" y="217" width="40" height="40"/>
      <rect id="矩形_3_拷贝_8" data-name="矩形 3 拷贝 8" class="cls-2" x="174" y="259" width="40" height="40"/>
    </g>
    <g id="组_2" data-name="组 2">
      <rect id="矩形_3_拷贝_5" data-name="矩形 3 拷贝 5" class="cls-2" x="216" y="175" width="40" height="40"/>
      <rect id="矩形_3_拷贝_6" data-name="矩形 3 拷贝 6" class="cls-2" x="258" y="175" width="40" height="40"/>
    </g>
    <g id="组_1" data-name="组 1">
      <rect id="矩形_3" data-name="矩形 3" class="cls-2" x="216" y="91" width="40" height="40"/>
      <rect id="矩形_3_拷贝" data-name="矩形 3 拷贝" class="cls-2" x="258" y="91" width="40" height="40"/>
    </g>
  </g>
</svg>
